# xmcd
#
# Track frame offsets:
#	187
#	17075
#	23090
#	28530
#	47735
#	61825
#	65370
#	93497
#	98290
#	103035
#	111427
#	126392
#	136362
#	149065
#	186800
#	202035
#	221332
#	240367
#	254590
#
# Disc length: 4482 seconds
#
# Revision: 1
# Processed by: cddbd v1.5.1PL0 Copyright (c) Steve Scherf et al.
# Submitted via: CDex 1.50Beta5
#
DISCID=11118013
DTITLE=芸能山城組 - 芸能山城組ライブ "開かれた合唱" 十年の展開
DYEAR=1900
DGENRE=World
TTITLE0=陽は沈む
TTITLE1=踊り上手なペトルンコ
TTITLE2=ラーダよ
TTITLE3=カライ・モーメ (さあ行きましょう、娘さん)
TTITLE4=トドラは夢みる
TTITLE5=都からきたシタヤン
TTITLE6=夕暮れのヤナ
TTITLE7=粟の収穫の唄
TTITLE8=お祝いと恋のうた
TTITLE9=男と女のうた
TTITLE10=ニハーベント旋法の唄
TTITLE11=ウヒミラ・イセカナカリ・ナスクンベ
TTITLE12=マラン・マホンのうた
TTITLE13=ケチャの合唱パタン
TTITLE14=合唱長持唄
TTITLE15=合唱刈干切唄
TTITLE16=山城節"柳の雨" <唐人お吉小唄(明鳥篇)入り>
TTITLE17=わらべうた抄
TTITLE18=恐山
EXTD=
EXTT0=
EXTT1=
EXTT2=
EXTT3=
EXTT4=
EXTT5=
EXTT6=
EXTT7=
EXTT8=
EXTT9=
EXTT10=
EXTT11=
EXTT12=
EXTT13=
EXTT14=
EXTT15=
EXTT16=
EXTT17=
EXTT18=
PLAYORDER=
